<svg id="Layer_5" data-name="Layer 5" xmlns="http://www.w3.org/2000/svg" viewBox="0 0 1790.75 289.6"><defs><style>.cls-1{fill:#71a0ff;}.cls-2{fill:#489cd1;}</style></defs><path class="cls-1" d="M51.35,334.87l57-51.6c21.71,22,49.4,33.6,81.8,33.6,20.8,0,33.93-7.2,37.14-19.2l.22-.8c3.11-11.6-4.38-18-40-26.8-56-13.6-97.45-30.4-82-88l.21-.8c13.94-52,65.21-89.59,132.41-89.59,47.6,0,81.37,12.79,105.23,37.19l-53.48,54.8c-20.78-18-46.21-27.6-71-27.6-18.8,0-30.15,8-32.83,18l-.21.8c-3.43,12.8,4.67,18.4,41.11,27.2,60.65,14,95.07,34.8,81,87.2l-.21.8c-15.33,57.2-69.64,91.2-137.64,91.2C120.51,381.27,77.5,365.67,51.35,334.87Z" transform="translate(-51.35 -91.68)"/><path class="cls-1" d="M398.82,96.48h78l-75,280h-78Z" transform="translate(-51.35 -91.68)"/><path class="cls-1" d="M528,96.48H636c100,0,142.56,57.59,120.91,138.39l-.21.8c-21.65,80.8-96.53,140.8-197.33,140.8H453Zm52.61,211.19c46.4,0,84.06-25.6,96.17-70.8l.21-.8c12-44.8-11.83-70.8-58.22-70.8h-31.6L549,307.67Z" transform="translate(-51.35 -91.68)"/><path class="cls-1" d="M824,96.48h200.57l-17,66H883.14l-11.37,42.4,124.55.68L979.7,266.07H855.38l-11.9,44.4H968.06l-17.87,66H749Z" transform="translate(-51.35 -91.68)"/><path class="cls-2" d="M1046.57,376.9h-32L1089.7,96.5h32ZM1230.9,96.5h37.21L1131,236.5l71.18,140.4h-40.8l-67.21-138.8.43-1.6Z" transform="translate(-51.35 -91.68)"/><path class="cls-2" d="M1324.9,96.5h32l-75.13,280.4h-32Z" transform="translate(-51.35 -91.68)"/><path class="cls-2" d="M1538.77,92.5c42.8,0,61.13,15.2,68.19,23.2l-26.54,24.4c-9.32-10-23.37-18.8-52.57-18.8-48.8,0-88.34,35.6-109.56,114.8-20.36,76-2.57,115.6,51,115.6,28.4,0,46.83-7.6,59.41-17.2l11.49,22.8c-15.62,12-43.13,23.6-83.13,23.6-77.2,0-95.5-55.6-72.35-142C1409.39,146.9,1464,92.5,1538.77,92.5Z" transform="translate(-51.35 -91.68)"/><path class="cls-2" d="M1620.56,376.9h-32l75.13-280.4h32ZM1804.89,96.5h37.2L1705,236.5l71.18,140.4h-40.8l-67.21-138.8.43-1.6Z" transform="translate(-51.35 -91.68)"/></svg>