<svg id="Layer_1" data-name="Layer 1" xmlns="http://www.w3.org/2000/svg" viewBox="0 0 385 105"><defs><style>.cls-1{fill:#b3b3b3}.cls-2{fill:#72a9c3}.cls-3{fill:#fff}</style></defs><title>Synergy-2018-Color2</title><path class="cls-1" d="M69.31 41.19S49.11 61.6 48.16 62.34a15 15 0 1 1-.4-23.83L56 30.33a26.44 26.44 0 1 0-.31 40.75l.28-.24 3.3-3.29.73-.75 8.24-8.24 9.24-9.24z"/><path class="cls-2" d="M46.67 60s20.2-20.41 21.15-21.15a14.95 14.95 0 1 1 .4 23.83L60 70.82a26.45 26.45 0 1 0 .3-40.75l-.28.23-3.3 3.3-.75.75-8.24 8.24-9.23 9.24z"/><path class="cls-3" d="M138.65 33.85c-1.89-2.66-5.26-3.92-8.7-3.92-4.06 0-8.13 1.82-8.13 6.38 0 9.95 23.56 4.27 23.56 21.94 0 10.66-8.41 15.85-18.16 15.85-6.17 0-12.2-1.9-16.27-6.73l6.66-6.45a11.72 11.72 0 0 0 9.82 5.18c4.07 0 8.69-2.24 8.69-6.8 0-10.86-23.55-4.62-23.55-22.36 0-10.24 9.11-15 18.3-15 5.18 0 10.37 1.47 14.23 5.12zm10.59 5.33h9.25l9.4 23.35h.11l8.41-23.35h8.77l-15.89 40.88c-2.45 6.31-5.4 9.6-12.83 9.6a25.1 25.1 0 0 1-6.45-.84l1.05-7.57a12.58 12.58 0 0 0 4.28.84c4.14 0 5.26-1.47 6.66-5l1.61-4zm40.95 0h8v5.4h.14c1.54-3.37 4.7-6.24 10.31-6.24 9 0 12.27 6.38 12.27 13.25v21.24h-8.42v-17c0-3.72-.28-9.89-6.17-9.89-5.53 0-7.71 4.07-7.71 8.55v18.34h-8.41zM237.17 59a8.72 8.72 0 0 0 9 8 11.09 11.09 0 0 0 9-4.56l6 4.56a17.56 17.56 0 0 1-14.24 6.73c-10.16 0-18.3-7.09-18.3-17.67s8.14-17.67 18.3-17.67c9.4 0 15.78 6.59 15.78 18.3V59zm17.25-6.31c-.07-4.91-3.3-8-8.56-8-5 0-8.06 3.15-8.69 8zm16.27-13.51h8.41v5.33h.14a10.71 10.71 0 0 1 10-6.17 10.83 10.83 0 0 1 3 .49V47a16.85 16.85 0 0 0-4.07-.63c-7.92 0-9 6.66-9 8.49v18h-8.41zm60.65 0v30.64c0 12.13-5.89 19.84-19 19.84-6.24 0-11.92-1.33-16.69-5.54l5.05-6.87c3.36 3.09 6.87 4.84 11.57 4.84 8.13 0 10.65-4.63 10.65-11.29v-2.45h-.14c-2.45 3.29-6.8 4.91-11 4.91-10.1 0-16.78-7.72-16.78-17.26 0-10 6.24-17.67 16.61-17.67 4.7 0 9.12 1.82 11.57 5.89h.14v-5zm-27.91 16.76a9.71 9.71 0 0 0 9.89 9.74c6.24 0 10-4.27 10-9.88 0-5.82-3.85-9.89-9.95-9.89-5.87 0-9.94 4.09-9.94 10.03zm32.89-16.76h9.25L355 62.53h.14l8.41-23.35h8.77l-15.95 40.88c-2.45 6.31-5.4 9.6-12.83 9.6a25.1 25.1 0 0 1-6.45-.84l1.05-7.57a12.58 12.58 0 0 0 4.28.84c4.13 0 5.26-1.47 6.66-5l1.61-4zM149.39 23.21a16.19 16.19 0 0 1 2.77-.22 4.57 4.57 0 0 1 3.13.93 3 3 0 0 1 1 2.34 3.31 3.31 0 0 1-.86 2.39 5.67 5.67 0 0 1-4.58 1.12v4.48h-1.44zm1.44 5.39a5.05 5.05 0 0 0 1.2.11c1.74 0 2.8-.84 2.8-2.39s-1.05-2.19-2.64-2.19a5.79 5.79 0 0 0-1.36.12zm8.69-4.6a.86.86 0 0 1-.93.89.87.87 0 0 1-.88-.89.89.89 0 0 1 .92-.91.86.86 0 0 1 .89.91zm-1.62 10.25v-8h1.46v8zm5.63-10.33v2.3h2.09v1.12h-2.09v4.33c0 1 .29 1.55 1.1 1.55a3.32 3.32 0 0 0 .85-.1l.06 1.1a3.47 3.47 0 0 1-1.29.2 2 2 0 0 1-1.58-.62 3 3 0 0 1-.56-2.09v-4.37h-1.25v-1.12h1.25V24.3zm3.54 8.84a3.82 3.82 0 0 0 1.92.58c1.06 0 1.56-.53 1.56-1.19s-.42-1.08-1.49-1.48c-1.45-.51-2.13-1.31-2.13-2.27a2.48 2.48 0 0 1 2.77-2.4 4 4 0 0 1 2 .5l-.37 1.06a3.08 3.08 0 0 0-1.64-.46c-.86 0-1.34.49-1.34 1.09s.48 1 1.52 1.36c1.4.53 2.11 1.23 2.11 2.42 0 1.41-1.1 2.41-3 2.41a4.63 4.63 0 0 1-2.26-.55zM179.55 34a5.3 5.3 0 0 1-2.3.47 3.82 3.82 0 0 1-4-4.1 4.08 4.08 0 0 1 4.31-4.26 4.89 4.89 0 0 1 2 .41l-.33 1.13a3.41 3.41 0 0 0-1.7-.38 2.78 2.78 0 0 0-2.83 3 2.75 2.75 0 0 0 2.78 3 4.24 4.24 0 0 0 1.8-.4zm8.88-3.83a3.93 3.93 0 0 1-4 4.27 3.83 3.83 0 0 1-3.85-4.14 3.92 3.92 0 0 1 4-4.26 3.81 3.81 0 0 1 3.85 4.13zm-6.37.09c0 1.75 1 3.08 2.44 3.08s2.43-1.31 2.43-3.12c0-1.36-.68-3.08-2.4-3.08s-2.47 1.59-2.47 3.12zM199.62 29h-4.34v4h4.84v1.21h-6.29V23.07h6v1.21h-4.59v3.54h4.34zm9.19-6.52v9.7c0 .71 0 1.53.07 2.07h-1.32l-.06-1.39a3 3 0 0 1-2.73 1.58c-1.94 0-3.44-1.65-3.44-4.09 0-2.67 1.65-4.31 3.6-4.31a2.7 2.7 0 0 1 2.43 1.23v-4.79zm-1.46 7a2.54 2.54 0 0 0-.07-.61 2.14 2.14 0 0 0-2.1-1.69c-1.51 0-2.41 1.32-2.41 3.1 0 1.62.8 3 2.37 3a2.19 2.19 0 0 0 2.14-1.74 2.53 2.53 0 0 0 .07-.63zM218 32.06c0 .83 0 1.56.06 2.19h-1.29l-.08-1.31a3 3 0 0 1-2.65 1.5c-1.26 0-2.77-.7-2.77-3.52v-4.7h1.46v4.45c0 1.53.46 2.55 1.79 2.55a2.1 2.1 0 0 0 1.92-1.32 2 2 0 0 0 .14-.75v-4.93H218zm8.09 1.94a5.36 5.36 0 0 1-2.31.47 3.81 3.81 0 0 1-4-4.1 4.08 4.08 0 0 1 4.31-4.26 4.87 4.87 0 0 1 2 .41l-.33 1.13a3.39 3.39 0 0 0-1.69-.38 2.78 2.78 0 0 0-2.84 3 2.76 2.76 0 0 0 2.79 3 4.19 4.19 0 0 0 1.79-.4zm6.15.25l-.12-1h-.05a3 3 0 0 1-2.45 1.2 2.28 2.28 0 0 1-2.45-2.31c0-1.94 1.72-3 4.82-3V29a1.65 1.65 0 0 0-1.82-1.86 3.94 3.94 0 0 0-2.09.6l-.33-1a4.88 4.88 0 0 1 2.63-.72c2.46 0 3.05 1.68 3.05 3.29v3a11.15 11.15 0 0 0 .14 1.92zm-.24-4.09c-1.59 0-3.4.24-3.4 1.8a1.3 1.3 0 0 0 1.38 1.4 2 2 0 0 0 1.96-1.36 1.48 1.48 0 0 0 .08-.46zm5.48-6.24v2.3h2.09v1.12h-2.09v4.33c0 1 .28 1.55 1.09 1.55a3.2 3.2 0 0 0 .85-.1l.07 1.1a3.49 3.49 0 0 1-1.3.2 2 2 0 0 1-1.57-.62 2.94 2.94 0 0 1-.57-2.09v-4.37h-1.24v-1.12h1.24V24.3zm5.36.08a.91.91 0 0 1-1.84 0 .88.88 0 0 1 .91-.91.86.86 0 0 1 .93.91zm-1.63 10.28v-8h1.46v8zm11.15-4.11a3.93 3.93 0 0 1-4 4.27 3.83 3.83 0 0 1-3.85-4.14 3.92 3.92 0 0 1 4-4.26 3.81 3.81 0 0 1 3.85 4.13zm-6.37.09c0 1.75 1 3.08 2.44 3.08s2.43-1.31 2.43-3.12c0-1.36-.68-3.08-2.4-3.08S246 28.73 246 30.26zm8.21-1.86c0-.83 0-1.51-.07-2.18h1.29l.09 1.33a3 3 0 0 1 2.68-1.55c1.11 0 2.84.67 2.84 3.42v4.79h-1.46v-4.59c0-1.29-.48-2.37-1.86-2.37a2.06 2.06 0 0 0-1.95 1.5 2 2 0 0 0-.1.68v4.82h-1.46z"/></svg>